<svg xmlns="http://www.w3.org/2000/svg" width="300" height="200" viewBox="0 0 300 200"><rect width="100%" height="100%" fill="#ecf0f1"/><path fill="#2c3e50" d="m72.56 89.345-.97 1.85q-.17.3-.37.44t-.49.14q-.3 0-.66-.23-.35-.22-.84-.5-.5-.27-1.16-.5-.66-.22-1.55-.22-.82 0-1.43.19-.6.2-1.02.55-.41.34-.61.83-.21.49-.21 1.07 0 .73.42 1.23.41.49 1.09.84t1.55.62q.87.28 1.79.59.91.31 1.78.72.87.42 1.55 1.05t1.1 1.54q.41.92.41 2.22 0 1.42-.49 2.66-.48 1.24-1.42 2.16-.93.92-2.28 1.45t-3.09.53q-1 0-1.97-.19-.97-.2-1.87-.56-.89-.36-1.67-.87t-1.39-1.13l1.14-1.87q.15-.21.38-.34.23-.14.49-.14.37 0 .79.3.42.29 1 .65.58.37 1.35.66.78.3 1.87.3 1.66 0 2.58-.79.91-.79.91-2.27 0-.82-.41-1.35-.42-.52-1.1-.87-.68-.36-1.55-.61-.87-.24-1.77-.53t-1.77-.7q-.87-.4-1.55-1.06-.68-.65-1.09-1.63-.42-.98-.42-2.41 0-1.15.46-2.23.46-1.09 1.33-1.93t2.14-1.35q1.28-.51 2.93-.51 1.86 0 3.42.58 1.57.58 2.67 1.62m6.31 4.78.25 1.17q.45-.45.95-.83.5-.39 1.05-.66.56-.26 1.2-.42.64-.15 1.39-.15 1.22 0 2.16.41.95.42 1.58 1.16.63.75.95 1.79.33 1.03.33 2.28v9.47h-3.58v-9.47q0-1.36-.63-2.11-.62-.75-1.9-.75-.92 0-1.74.43-.81.42-1.53 1.14v10.76h-3.58v-14.88h2.19q.69 0 .91.66m19.84-.89q1.65 0 3 .54 1.36.53 2.32 1.52.97.99 1.49 2.41t.52 3.17q0 1.77-.52 3.19t-1.49 2.42q-.96 1-2.32 1.54-1.35.54-3 .54-1.67 0-3.04-.54-1.36-.54-2.32-1.54-.97-1-1.5-2.42t-.53-3.19q0-1.75.53-3.17t1.5-2.41q.96-.99 2.32-1.52 1.37-.54 3.04-.54m0 12.57q1.85 0 2.74-1.24.89-1.25.89-3.66t-.89-3.67-2.74-1.26q-1.89 0-2.8 1.27-.9 1.27-.9 3.66t.9 3.65q.91 1.25 2.8 1.25m28.59-12.34h2.73l-4.73 14.88h-2.87q-.5 0-.68-.64l-2.67-8.6q-.13-.43-.24-.86t-.18-.86q-.09.43-.2.88-.11.44-.24.87l-2.71 8.57q-.17.64-.77.64h-2.75l-4.72-14.88h2.86q.39 0 .67.19.27.19.36.48l2.13 7.95q.16.65.29 1.27.12.63.21 1.25.15-.62.34-1.25.18-.62.38-1.27l2.47-7.98q.08-.29.34-.48.25-.19.61-.19h1.58q.38 0 .65.19t.35.48l2.4 7.98q.18.65.35 1.28t.33 1.25q.19-1.23.53-2.53l2.19-7.95q.1-.29.37-.48.26-.19.62-.19m16.27 11.66h8.38v3.22h-12.28v-20.97h3.9zm13.43-5.93h6.75q0-.7-.19-1.31-.2-.62-.59-1.08-.39-.47-.99-.73-.61-.27-1.4-.27-1.55 0-2.45.88-.89.89-1.13 2.51m9.13 2.16h-9.21q.09 1.15.41 1.98t.84 1.38q.52.54 1.24.81t1.59.27 1.5-.21q.63-.2 1.1-.44.47-.25.83-.45.35-.21.69-.21.44 0 .66.34l1.03 1.3q-.59.7-1.33 1.17t-1.55.75q-.8.29-1.63.4-.84.12-1.62.12-1.55 0-2.89-.52-1.33-.51-2.32-1.52-.98-1.01-1.55-2.49-.56-1.49-.56-3.45 0-1.52.49-2.86t1.41-2.34q.92-.99 2.25-1.57t2.99-.58q1.41 0 2.6.45t2.04 1.31q.86.87 1.35 2.12.48 1.25.48 2.86 0 .82-.17 1.1-.18.28-.67.28m10.11-8.12q1.65 0 3.01.54 1.35.53 2.32 1.52.96.99 1.48 2.41t.52 3.17q0 1.77-.52 3.19t-1.48 2.42q-.97 1-2.32 1.54-1.36.54-3.01.54-1.67 0-3.03-.54-1.37-.54-2.33-1.54-.97-1-1.49-2.42-.53-1.42-.53-3.19 0-1.75.53-3.17.52-1.42 1.49-2.41.96-.99 2.33-1.52 1.36-.54 3.03-.54m0 12.57q1.85 0 2.74-1.24.9-1.25.9-3.66t-.9-3.67q-.89-1.26-2.74-1.26-1.89 0-2.79 1.27-.91 1.27-.91 3.66t.91 3.65q.9 1.25 2.79 1.25m13.66-7.99v6.67q.6.74 1.32 1.05.72.3 1.56.3.81 0 1.47-.3.65-.31 1.11-.93.45-.62.7-1.57.24-.95.24-2.24 0-1.31-.21-2.22-.21-.9-.6-1.47-.39-.56-.95-.82-.56-.27-1.27-.27-1.11 0-1.9.48-.78.47-1.47 1.32m-.48-3.69.29 1.37q.91-1.03 2.07-1.66 1.16-.64 2.73-.64 1.21 0 2.22.5 1.01.51 1.74 1.48.73.96 1.13 2.37.4 1.42.4 3.25 0 1.66-.45 3.08t-1.28 2.47q-.83 1.04-2.02 1.63-1.18.59-2.64.59-1.25 0-2.13-.39-.89-.38-1.58-1.06v6.09h-3.59v-19.74h2.19q.7 0 .92.66m21.23 10.38v-2.51q-1.56.07-2.61.27-1.06.19-1.7.5-.64.3-.91.71-.28.4-.28.88 0 .94.56 1.35t1.46.41q1.1 0 1.9-.4.81-.4 1.58-1.21m-7.57-7.82-.64-1.14q2.56-2.35 6.18-2.35 1.3 0 2.33.43 1.03.42 1.74 1.18.71.77 1.08 1.82.37 1.06.37 2.32v9.4h-1.62q-.51 0-.79-.15-.27-.15-.43-.62l-.32-1.07q-.57.51-1.1.89-.54.38-1.12.65-.58.26-1.24.39-.66.14-1.46.14-.94 0-1.74-.25-.79-.26-1.37-.76-.58-.51-.9-1.26-.32-.76-.32-1.76 0-.56.19-1.12.18-.56.61-1.07t1.11-.96 1.68-.78q.99-.33 2.31-.54t3.02-.26v-.87q0-1.49-.64-2.21t-1.84-.72q-.87 0-1.45.21-.57.2-1 .45-.44.26-.79.46-.36.2-.8.2-.37 0-.63-.19-.26-.2-.42-.46m17.58-2.32.22 1.68q.7-1.33 1.66-2.09.95-.76 2.26-.76 1.03 0 1.65.45l-.23 2.68q-.07.26-.21.37t-.37.11q-.22 0-.65-.07-.42-.08-.83-.08-.6 0-1.06.18-.46.17-.83.5-.37.32-.66.79-.28.46-.52 1.06v9.16h-3.59v-14.88h2.11q.55 0 .76.2.22.19.29.7m17 9.57v-6.67q-.61-.74-1.33-1.04-.72-.31-1.54-.31-.81 0-1.47.31-.65.3-1.11.92-.47.61-.71 1.56-.25.95-.25 2.24 0 1.31.21 2.22.21.9.6 1.48.39.57.96.82.56.26 1.26.26 1.12 0 1.9-.47.78-.46 1.48-1.32m0-17.14h3.58v21.55h-2.19q-.71 0-.9-.65l-.3-1.44q-.9 1.03-2.07 1.67t-2.72.64q-1.22 0-2.23-.51-1.02-.51-1.75-1.47-.73-.97-1.13-2.39t-.4-3.25q0-1.65.45-3.07t1.29-2.46q.84-1.05 2.02-1.64 1.17-.58 2.64-.58 1.24 0 2.13.39.88.39 1.58 1.06z"/></svg>